{"glyphs":{"0":{"ha":886,"x_min":0,"x_max":868,"o":"m 106 0 l 0 174 l 0 521 l 174 521 l 174 174 l 694 174 l 694 521 l 868 521 l 868 174 l 762 0 l 106 0 m 0 694 l 106 868 l 762 868 l 868 694 l 0 694 z "},"1":{"ha":365,"x_min":0,"x_max":347,"o":"m 174 0 l 174 694 l 0 694 l 106 868 l 347 868 l 347 0 l 174 0 z "},"2":{"ha":886,"x_min":0,"x_max":868,"o":"m 0 0 l 0 347 l 106 521 l 868 521 l 762 347 l 174 347 l 174 174 l 868 174 l 762 0 l 0 0 m 0 694 l 0 868 l 762 868 l 868 694 l 0 694 z "},"3":{"ha":886,"x_min":0,"x_max":868,"o":"m 0 0 l 0 174 l 665 174 l 559 347 l 0 347 l 0 521 l 868 521 l 762 347 l 868 174 l 762 0 l 0 0 m 0 694 l 0 868 l 762 868 l 868 694 l 0 694 z "},"4":{"ha":886,"x_min":0,"x_max":868,"o":"m 694 0 l 694 347 l 106 347 l 0 521 l 0 868 l 174 868 l 174 521 l 694 521 l 694 868 l 868 868 l 868 0 l 694 0 z "},"5":{"ha":886,"x_min":0,"x_max":868,"o":"m 0 0 l 0 174 l 694 174 l 694 347 l 0 347 l 0 521 l 762 521 l 868 347 l 868 174 l 762 0 l 0 0 m 0 694 l 0 868 l 868 868 l 868 694 l 0 694 z "},"6":{"ha":886,"x_min":0,"x_max":868,"o":"m 694 174 l 694 347 l 174 347 l 174 174 l 694 174 m 106 0 l 0 174 l 0 521 l 762 521 l 868 347 l 868 174 l 762 0 l 106 0 m 0 694 l 106 868 l 868 868 l 868 694 l 0 694 z "},"7":{"ha":886,"x_min":0,"x_max":868,"o":"m 694 0 l 694 521 l 868 521 l 868 0 l 694 0 m 0 694 l 106 868 l 868 868 l 868 694 l 0 694 z "},"8":{"ha":886,"x_min":0,"x_max":868,"o":"m 651 174 l 545 347 l 323 347 l 217 174 l 651 174 m 106 0 l 0 174 l 106 347 l 0 521 l 868 521 l 762 347 l 868 174 l 762 0 l 106 0 m 0 694 l 106 868 l 762 868 l 868 694 l 0 694 z "},"9":{"ha":886,"x_min":0,"x_max":868,"o":"m 0 0 l 0 174 l 694 174 l 694 347 l 106 347 l 0 521 l 0 694 l 106 868 l 762 868 l 868 694 l 174 694 l 174 521 l 868 521 l 868 174 l 762 0 l 0 0 z "}," ":{"ha":347,"x_min":0,"x_max":0,"o":""},"*":{"ha":1866,"x_min":0,"x_max":1799,"o":"m 239 694 l 345 868 l 1126 868 l 1020 694 l 239 694 m 861 174 l 1278 868 l 1799 0 l 1596 0 l 1508 148 l 1158 148 l 1261 321 l 1404 321 l 1278 533 l 962 0 l 0 0 l 212 347 l 65 347 l 168 521 l 865 521 l 760 347 l 412 347 l 309 174 l 861 174 z "},"A":{"ha":1059,"x_min":0,"x_max":1042,"o":"m 647 321 l 521 533 l 205 0 l 0 0 l 521 868 l 1042 0 l 840 0 l 751 148 l 401 148 l 505 321 l 647 321 z "},"B":{"ha":886,"x_min":0,"x_max":868,"o":"m 0 694 l 0 868 l 762 868 l 868 694 l 0 694 m 694 347 l 174 347 l 174 174 l 694 174 l 694 347 m 868 174 l 762 0 l 0 0 l 0 521 l 868 521 l 762 347 l 868 174 z "},"C":{"ha":886,"x_min":0,"x_max":868,"o":"m 0 0 l 0 521 l 174 521 l 174 174 l 868 174 l 868 0 l 0 0 m 0 694 l 106 868 l 868 868 l 868 694 l 0 694 z "},"D":{"ha":886,"x_min":0,"x_max":868,"o":"m 0 0 l 0 521 l 174 521 l 174 174 l 694 174 l 694 694 l 0 694 l 0 868 l 749 868 l 868 694 l 868 174 l 749 0 l 0 0 z "},"E":{"ha":1058,"x_min":0,"x_max":1126,"o":"m 239 694 l 345 868 l 1126 868 l 1020 694 l 239 694 m 309 174 l 1024 174 l 921 0 l 0 0 l 212 347 l 65 347 l 168 521 l 865 521 l 760 347 l 412 347 l 309 174 z "},"F":{"ha":886,"x_min":0,"x_max":800,"o":"m 119 0 l 119 521 l 600 521 l 494 347 l 293 347 l 293 0 l 119 0 m 0 694 l 106 868 l 800 868 l 694 694 l 0 694 z "},"G":{"ha":886,"x_min":0,"x_max":868,"o":"m 174 0 l 0 174 l 0 521 l 174 521 l 174 174 l 694 174 l 694 521 l 868 521 l 868 0 l 174 0 m 0 694 l 106 868 l 800 868 l 694 694 l 0 694 z "},"H":{"ha":886,"x_min":0,"x_max":868,"o":"m 0 0 l 0 868 l 174 868 l 174 0 l 0 0 m 694 0 l 694 347 l 323 347 l 217 521 l 694 521 l 694 868 l 868 868 l 868 0 l 694 0 z "},"I":{"ha":191,"x_min":0,"x_max":174,"o":"m 0 0 l 0 868 l 174 868 l 174 0 l 0 0 z "},"J":{"ha":886,"x_min":0,"x_max":868,"o":"m 174 0 l 0 174 l 0 347 l 174 347 l 174 174 l 694 174 l 694 521 l 868 521 l 868 174 l 694 0 l 174 0 m 521 694 l 415 868 l 868 868 l 868 694 l 521 694 z "},"K":{"ha":872,"x_min":0,"x_max":819,"o":"m 819 244 l 819 0 l 453 363 l 575 486 l 819 244 m 819 868 l 174 222 l 174 0 l 0 0 l 0 868 l 174 868 l 174 469 l 572 868 l 819 868 z "},"L":{"ha":886,"x_min":0,"x_max":868,"o":"m 106 0 l 0 174 l 868 174 l 868 0 l 106 0 m 0 347 l 0 868 l 174 868 l 174 347 l 0 347 z "},"M":{"ha":1059,"x_min":0,"x_max":1042,"o":"m 0 0 l 0 521 l 174 521 l 174 0 l 0 0 m 434 0 l 434 521 l 608 521 l 608 0 l 434 0 m 868 0 l 868 521 l 1042 521 l 1042 0 l 868 0 m 0 694 l 106 868 l 936 868 l 1042 694 l 0 694 z "},"N":{"ha":886,"x_min":0,"x_max":868,"o":"m 694 0 l 694 868 l 868 868 l 868 0 l 694 0 m 521 275 l 174 623 l 174 0 l 0 0 l 0 868 l 174 868 l 521 521 l 521 275 z "},"O":{"ha":886,"x_min":0,"x_max":868,"o":"m 174 0 l 0 174 l 0 521 l 174 521 l 174 174 l 694 174 l 694 521 l 868 521 l 868 174 l 694 0 l 174 0 m 0 694 l 106 868 l 762 868 l 868 694 l 0 694 z "},"P":{"ha":886,"x_min":0,"x_max":868,"o":"m 0 0 l 0 521 l 868 521 l 762 347 l 174 347 l 174 0 l 0 0 m 0 694 l 0 868 l 762 868 l 868 694 l 0 694 z "},"Q":{"ha":886,"x_min":0,"x_max":868,"o":"m 868 -174 l 694 0 l 106 0 l 0 174 l 0 521 l 174 521 l 174 174 l 694 174 l 694 521 l 868 521 l 868 -174 m 0 694 l 106 868 l 762 868 l 868 694 l 0 694 z "},"R":{"ha":886,"x_min":0,"x_max":868,"o":"m 0 694 l 0 868 l 762 868 l 868 694 l 0 694 m 762 361 l 868 214 l 868 0 l 694 0 l 694 347 l 174 347 l 174 0 l 0 0 l 0 521 l 868 521 l 762 361 z "},"S":{"ha":886,"x_min":0,"x_max":868,"o":"m 106 0 l 0 174 l 694 174 l 694 347 l 106 347 l 0 521 l 762 521 l 868 347 l 868 174 l 762 0 l 106 0 m 0 694 l 106 868 l 868 868 l 868 694 l 0 694 z "},"T":{"ha":886,"x_min":0,"x_max":868,"o":"m 347 0 l 347 521 l 521 521 l 521 0 l 347 0 m 0 694 l 0 868 l 868 868 l 868 694 l 0 694 z "},"U":{"ha":886,"x_min":0,"x_max":868,"o":"m 106 0 l 0 174 l 0 868 l 174 868 l 174 174 l 694 174 l 694 868 l 868 868 l 868 174 l 762 0 l 106 0 z "},"V":{"ha":886,"x_min":0,"x_max":868,"o":"m 0 0 l 0 868 l 174 868 l 174 174 l 694 174 l 694 868 l 868 868 l 868 174 l 762 0 l 0 0 z "},"W":{"ha":1059,"x_min":0,"x_max":1042,"o":"m 106 0 l 0 174 l 0 868 l 174 868 l 174 174 l 434 174 l 434 868 l 608 868 l 608 174 l 868 174 l 868 868 l 1042 868 l 1042 174 l 936 0 l 106 0 z "},"X":{"ha":738,"x_min":0,"x_max":712,"o":"m 357 262 l 202 0 l 0 0 l 255 434 l 0 868 l 202 868 l 357 606 l 510 868 l 712 868 l 457 434 l 712 0 l 510 0 l 357 262 z "},"Y":{"ha":886,"x_min":0,"x_max":868,"o":"m 0 0 l 0 174 l 868 174 l 762 0 l 0 0 m 106 347 l 0 521 l 0 868 l 174 868 l 174 521 l 694 521 l 694 868 l 868 868 l 868 347 l 106 347 z "},"Z":{"ha":886,"x_min":0,"x_max":868,"o":"m 0 0 l 0 347 l 106 521 l 868 521 l 762 347 l 174 347 l 174 174 l 868 174 l 762 0 l 0 0 m 0 694 l 0 868 l 868 868 l 868 694 l 0 694 z "},"a":{"ha":1059,"x_min":0,"x_max":1042,"o":"m 647 321 l 521 533 l 205 0 l 0 0 l 521 868 l 1042 0 l 840 0 l 751 148 l 401 148 l 505 321 l 647 321 z "},"b":{"ha":886,"x_min":0,"x_max":868,"o":"m 0 694 l 0 868 l 762 868 l 868 694 l 0 694 m 694 347 l 174 347 l 174 174 l 694 174 l 694 347 m 868 174 l 762 0 l 0 0 l 0 521 l 868 521 l 762 347 l 868 174 z "},"c":{"ha":886,"x_min":0,"x_max":868,"o":"m 0 0 l 0 521 l 174 521 l 174 174 l 868 174 l 868 0 l 0 0 m 0 694 l 106 868 l 868 868 l 868 694 l 0 694 z "},"d":{"ha":886,"x_min":0,"x_max":868,"o":"m 0 0 l 0 521 l 174 521 l 174 174 l 694 174 l 694 694 l 0 694 l 0 868 l 749 868 l 868 694 l 868 174 l 749 0 l 0 0 z "},"e":{"ha":844,"x_min":0,"x_max":814,"o":"m 174 0 l 174 347 l 0 347 l 106 521 l 627 521 l 521 347 l 347 347 l 347 174 l 814 174 l 814 0 l 174 0 m 0 694 l 106 868 l 800 868 l 694 694 l 0 694 z "},"f":{"ha":886,"x_min":0,"x_max":800,"o":"m 119 0 l 119 521 l 600 521 l 494 347 l 293 347 l 293 0 l 119 0 m 0 694 l 106 868 l 800 868 l 694 694 l 0 694 z "},"g":{"ha":886,"x_min":0,"x_max":868,"o":"m 174 0 l 0 174 l 0 521 l 174 521 l 174 174 l 694 174 l 694 521 l 868 521 l 868 0 l 174 0 m 0 694 l 106 868 l 800 868 l 694 694 l 0 694 z "},"h":{"ha":886,"x_min":0,"x_max":868,"o":"m 0 0 l 0 868 l 174 868 l 174 0 l 0 0 m 694 0 l 694 347 l 323 347 l 217 521 l 694 521 l 694 868 l 868 868 l 868 0 l 694 0 z "},"i":{"ha":191,"x_min":0,"x_max":174,"o":"m 0 0 l 0 868 l 174 868 l 174 0 l 0 0 z "},"j":{"ha":886,"x_min":0,"x_max":868,"o":"m 174 0 l 0 174 l 0 347 l 174 347 l 174 174 l 694 174 l 694 521 l 868 521 l 868 174 l 694 0 l 174 0 m 521 694 l 415 868 l 868 868 l 868 694 l 521 694 z "},"k":{"ha":872,"x_min":0,"x_max":819,"o":"m 819 244 l 819 0 l 453 363 l 575 486 l 819 244 m 819 868 l 174 222 l 174 0 l 0 0 l 0 868 l 174 868 l 174 469 l 572 868 l 819 868 z "},"l":{"ha":886,"x_min":0,"x_max":868,"o":"m 106 0 l 0 174 l 868 174 l 868 0 l 106 0 m 0 347 l 0 868 l 174 868 l 174 347 l 0 347 z "},"m":{"ha":1059,"x_min":0,"x_max":1042,"o":"m 0 0 l 0 521 l 174 521 l 174 0 l 0 0 m 434 0 l 434 521 l 608 521 l 608 0 l 434 0 m 868 0 l 868 521 l 1042 521 l 1042 0 l 868 0 m 0 694 l 106 868 l 936 868 l 1042 694 l 0 694 z "},"n":{"ha":886,"x_min":0,"x_max":868,"o":"m 694 0 l 694 868 l 868 868 l 868 0 l 694 0 m 521 275 l 174 623 l 174 0 l 0 0 l 0 868 l 174 868 l 521 521 l 521 275 z "},"o":{"ha":886,"x_min":0,"x_max":868,"o":"m 174 0 l 0 174 l 0 521 l 174 521 l 174 174 l 694 174 l 694 521 l 868 521 l 868 174 l 694 0 l 174 0 m 0 694 l 106 868 l 762 868 l 868 694 l 0 694 z "},"p":{"ha":886,"x_min":0,"x_max":868,"o":"m 0 0 l 0 521 l 868 521 l 762 347 l 174 347 l 174 0 l 0 0 m 0 694 l 0 868 l 762 868 l 868 694 l 0 694 z "},"q":{"ha":886,"x_min":0,"x_max":868,"o":"m 868 -174 l 694 0 l 106 0 l 0 174 l 0 521 l 174 521 l 174 174 l 694 174 l 694 521 l 868 521 l 868 -174 m 0 694 l 106 868 l 762 868 l 868 694 l 0 694 z "},"r":{"ha":886,"x_min":0,"x_max":868,"o":"m 0 694 l 0 868 l 762 868 l 868 694 l 0 694 m 762 361 l 868 214 l 868 0 l 694 0 l 694 347 l 174 347 l 174 0 l 0 0 l 0 521 l 868 521 l 762 361 z "},"s":{"ha":886,"x_min":0,"x_max":868,"o":"m 106 0 l 0 174 l 694 174 l 694 347 l 106 347 l 0 521 l 762 521 l 868 347 l 868 174 l 762 0 l 106 0 m 0 694 l 106 868 l 868 868 l 868 694 l 0 694 z "},"t":{"ha":886,"x_min":0,"x_max":868,"o":"m 347 0 l 347 521 l 521 521 l 521 0 l 347 0 m 0 694 l 0 868 l 868 868 l 868 694 l 0 694 z "},"u":{"ha":886,"x_min":0,"x_max":868,"o":"m 106 0 l 0 174 l 0 868 l 174 868 l 174 174 l 694 174 l 694 868 l 868 868 l 868 174 l 762 0 l 106 0 z "},"v":{"ha":886,"x_min":0,"x_max":868,"o":"m 0 0 l 0 868 l 174 868 l 174 174 l 694 174 l 694 868 l 868 868 l 868 174 l 762 0 l 0 0 z "},"w":{"ha":1059,"x_min":0,"x_max":1042,"o":"m 106 0 l 0 174 l 0 868 l 174 868 l 174 174 l 434 174 l 434 868 l 608 868 l 608 174 l 868 174 l 868 868 l 1042 868 l 1042 174 l 936 0 l 106 0 z "},"x":{"ha":738,"x_min":0,"x_max":712,"o":"m 357 262 l 202 0 l 0 0 l 255 434 l 0 868 l 202 868 l 357 606 l 510 868 l 712 868 l 457 434 l 712 0 l 510 0 l 357 262 z "},"y":{"ha":886,"x_min":0,"x_max":868,"o":"m 0 0 l 0 174 l 868 174 l 762 0 l 0 0 m 106 347 l 0 521 l 0 868 l 174 868 l 174 521 l 694 521 l 694 868 l 868 868 l 868 347 l 106 347 z "},"z":{"ha":886,"x_min":0,"x_max":868,"o":"m 0 0 l 0 347 l 106 521 l 868 521 l 762 347 l 174 347 l 174 174 l 868 174 l 762 0 l 0 0 m 0 694 l 0 868 l 868 868 l 868 694 l 0 694 z "}}}
